<svg preserveAspectRatio="none" width="100%" height="100%" overflow="visible" style="display: block;" viewBox="0 0 24 24" fill="none" xmlns="http://www.w3.org/2000/svg">
<g id="quill:meatballs-v">
<path id="Vector (Stroke)" d="M10.2 18.3C10.2 17.8226 10.3898 17.3649 10.7273 17.0273C11.0649 16.6898 11.5226 16.5 12 16.5C12.4774 16.5 12.9351 16.6898 13.2727 17.0273C13.6102 17.3649 13.8 17.8226 13.8 18.3C13.8 18.7774 13.6102 19.2351 13.2727 19.5727C12.9351 19.9102 12.4774 20.1 12 20.1C11.5226 20.1 11.0649 19.9102 10.7273 19.5727C10.3898 19.2351 10.2 18.7774 10.2 18.3ZM10.2 12C10.2 11.5226 10.3898 11.0649 10.7273 10.7273C11.0649 10.3898 11.5226 10.2 12 10.2C12.4774 10.2 12.9351 10.3898 13.2727 10.7273C13.6102 11.0649 13.8 11.5226 13.8 12C13.8 12.4774 13.6102 12.9351 13.2727 13.2727C12.9351 13.6102 12.4774 13.8 12 13.8C11.5226 13.8 11.0649 13.6102 10.7273 13.2727C10.3898 12.9351 10.2 12.4774 10.2 12ZM10.2 5.7C10.2 5.22261 10.3898 4.76491 10.7273 4.42734C11.0649 4.08978 11.5226 3.9 12 3.9L12.1781 3.90938C12.5901 3.95034 12.9774 4.13204 13.2727 4.42734C13.6102 4.76491 13.8 5.22261 13.8 5.7C13.8 6.17739 13.6102 6.63509 13.2727 6.97266C12.9351 7.31022 12.4774 7.5 12 7.5C11.5226 7.5 11.0649 7.31022 10.7273 6.97266C10.3898 6.63509 10.2 6.17739 10.2 5.7Z" fill="var(--fill-0, #E3E3E3)"/>
</g>
</svg>
