<svg preserveAspectRatio="none" width="100%" height="100%" overflow="visible" style="display: block;" viewBox="0 0 16 16" fill="none" xmlns="http://www.w3.org/2000/svg">
<g id="material-symbols:close-rounded">
<path id="Vector" d="M8.00003 8.9332L4.73337 12.1999C4.61114 12.3221 4.45559 12.3832 4.2667 12.3832C4.07781 12.3832 3.92225 12.3221 3.80003 12.1999C3.67781 12.0776 3.6167 11.9221 3.6167 11.7332C3.6167 11.5443 3.67781 11.3888 3.80003 11.2665L7.0667 7.99987L3.80003 4.7332C3.67781 4.61098 3.6167 4.45543 3.6167 4.26654C3.6167 4.07765 3.67781 3.92209 3.80003 3.79987C3.92225 3.67765 4.07781 3.61654 4.2667 3.61654C4.45559 3.61654 4.61114 3.67765 4.73337 3.79987L8.00003 7.06654L11.2667 3.79987C11.3889 3.67765 11.5445 3.61654 11.7334 3.61654C11.9223 3.61654 12.0778 3.67765 12.2 3.79987C12.3223 3.92209 12.3834 4.07765 12.3834 4.26654C12.3834 4.45543 12.3223 4.61098 12.2 4.7332L8.93337 7.99987L12.2 11.2665C12.3223 11.3888 12.3834 11.5443 12.3834 11.7332C12.3834 11.9221 12.3223 12.0776 12.2 12.1999C12.0778 12.3221 11.9223 12.3832 11.7334 12.3832C11.5445 12.3832 11.3889 12.3221 11.2667 12.1999L8.00003 8.9332Z" fill="var(--fill-0, white)"/>
</g>
</svg>
