<svg preserveAspectRatio="none" width="100%" height="100%" overflow="visible" style="display: block;" viewBox="0 0 24 24" fill="none" xmlns="http://www.w3.org/2000/svg">
<g id="mdi:phone-hangup-outline" clip-path="url(#clip0_771_179)">
<path id="Vector" d="M23.71 11.67C20.5504 8.66779 16.3585 6.99379 12 6.99379C7.64154 6.99379 3.44957 8.66779 0.29 11.67C0.197319 11.7634 0.123993 11.8743 0.0742288 11.9961C0.0244642 12.1179 -0.000760893 12.2484 0 12.38C0.00110462 12.6423 0.105256 12.8937 0.29 13.08L2.77 15.56C2.8658 15.6551 2.97987 15.7298 3.10533 15.7797C3.23079 15.8295 3.36505 15.8534 3.5 15.85C3.754 15.8464 3.99712 15.7463 4.18 15.57C4.97492 14.8309 5.87047 14.208 6.84 13.72C7.0083 13.6375 7.15004 13.5094 7.24906 13.3503C7.34807 13.1912 7.40038 13.0074 7.4 12.82V9.72C8.88613 9.24043 10.4384 8.99747 12 9C13.5593 8.99495 15.1092 9.24145 16.59 9.73V12.83C16.5896 13.0174 16.6419 13.2012 16.7409 13.3603C16.84 13.5194 16.9817 13.6475 17.15 13.73C18.1245 14.2149 19.0237 14.838 19.82 15.58C20.0029 15.7563 20.246 15.8564 20.5 15.86C20.635 15.8634 20.7692 15.8395 20.8947 15.7897C21.0201 15.7398 21.1342 15.6651 21.23 15.57L23.71 13.09C23.8037 12.997 23.8781 12.8864 23.9289 12.7646C23.9797 12.6427 24.0058 12.512 24.0058 12.38C24.0058 12.248 23.9797 12.1173 23.9289 11.9954C23.8781 11.8736 23.8037 11.763 23.71 11.67ZM5.4 12.22C4.74239 12.5943 4.11692 13.0224 3.53 13.5L2.46 12.42C3.36411 11.6707 4.35044 11.0266 5.4 10.5M20.5 13.5C19.9023 13.0256 19.2669 12.6008 18.6 12.23V10.53C19.6576 11.0398 20.6484 11.678 21.55 12.43L20.5 13.5Z" fill="var(--fill-0, white)"/>
</g>
<defs>
<clipPath id="clip0_771_179">
<rect width="24" height="24" fill="white"/>
</clipPath>
</defs>
</svg>
