<svg width="32" height="32" viewBox="0 0 32 32" fill="none" xmlns="http://www.w3.org/2000/svg">
<path d="M22.5 5.5C23.3284 5.50001 23.9999 6.17166 24 7V10.8174L27.3467 7.92773C27.9945 7.36873 28.9997 7.82886 29 8.68457V23.3154C28.9997 24.1711 27.9945 24.6313 27.3467 24.0723L24 21.1816V25C24 25.8284 23.3284 26.5 22.5 26.5H4.5C3.67157 26.5 3 25.8284 3 25V11.5L9 5.5H22.5ZM13.4863 9C13.26 12.7549 10.2549 15.7594 6.5 15.9863V16.0137C10.2543 16.24 13.26 19.2451 13.4863 23H13.5137C13.7394 19.2451 16.7451 16.24 20.5 16.0137V15.9863C16.7451 15.7594 13.74 12.7549 13.5137 9H13.4863Z" fill="currentColor"/>
</svg>
